<svg width="31" height="31" viewBox="0 0 31 31" fill="none" xmlns="http://www.w3.org/2000/svg">
<path d="M16.5607 0.43934C15.9749 -0.146447 15.0251 -0.146447 14.4393 0.43934C13.8536 1.02513 13.8536 1.97487 14.4393 2.56066L25.8787 14H1.5C0.671573 14 0 14.6716 0 15.5C0 16.3284 0.671573 17 1.5 17H25.8787L14.4393 28.4393C13.8536 29.0251 13.8536 29.9749 14.4393 30.5607C15.0251 31.1464 15.9749 31.1464 16.5607 30.5607L30.5597 16.5617" fill="#B3B3B3"/>
<path d="M16.5607 0.43934L30.5601 14.4387L16.5607 0.43934Z" fill="#B3B3B3"/>
<path d="M30.5601 14.4387C30.5611 14.4398 30.5628 14.4415 30.5638 14.4425L30.5601 14.4387Z" fill="#B3B3B3"/>
<path d="M30.5638 14.4425C30.7061 14.5856 30.8135 14.7502 30.8862 14.9258L30.5638 14.4425Z" fill="#B3B3B3"/>
<path d="M30.5704 16.5508C30.8361 16.2802 31 15.9092 31 15.5C31 15.2966 30.9595 15.1027 30.8862 14.9258" fill="#B3B3B3"/>
</svg>
