<svg width="20" height="20" viewBox="0 0 20 20" fill="none" xmlns="http://www.w3.org/2000/svg">
<path d="M10 0C4.477 0 0 4.477 0 10C0 15.523 4.477 20 10 20C15.523 20 20 15.523 20 10C20 4.477 15.523 0 10 0ZM10 2C14.418 2 18 5.582 18 10C18 13.9344 15.1562 17.1981 11.4141 17.8672V13.0352H13.7793L14.1309 10.3105H11.4297V8.57422C11.4297 7.78622 11.6493 7.25391 12.7793 7.25391H14.207V4.82227C13.512 4.75127 12.8142 4.71675 12.1152 4.71875C10.0412 4.71875 8.62109 5.98459 8.62109 8.30859V10.3145H6.27734V13.0391H8.62109V17.873C4.86169 17.2182 2 13.9467 2 10C2 5.582 5.582 2 10 2Z" fill="#EEEEEE"/>
</svg>
