<svg width="114" height="36" viewBox="0 0 114 36" fill="none" xmlns="http://www.w3.org/2000/svg">
<path d="M112.948 14.543L106.143 19.9861L112.948 25.4922L112.927 35.3696H104.643V27.6989L95.1338 19.9861L104.643 12.3994V9.35213L103.1 8.09119L91.4147 8.04916V35.3696H83.427V1.177H108.087L112.927 5.06492L112.948 14.543Z" fill="#EEEEEE"/>
<path d="M23.4771 1.15576H50.0393L49.9971 8.02792H31.1478V15.0472H47.4402L43.8901 21.8983H31.1478V35.3694H23.4771V1.15576Z" fill="#EEEEEE"/>
<path d="M82.3706 1.15576L71.5935 18.2206L82.3706 35.3694H72.9248L66.8178 25.7862L60.7954 35.3694H51.0115L61.9576 18.2206L51.0115 1.15576H60.7954L66.8178 10.6759L72.9248 1.15576H82.3706Z" fill="#EEEEEE"/>
<path d="M18.8704 35.3694V1.15576H0.655029L0.676161 35.3694H18.8704ZM12.9958 32.4693L6.19148 22.4027L8.2201 19.4185L12.9958 26.4587L14.6652 23.9789V29.9894L12.9958 32.4693ZM12.9747 4.26609L14.6441 6.72494V21.7722L12.9747 24.2521L11.3053 21.7932V6.74595L12.9747 4.26609ZM10.0585 8.57433V19.9439L8.19897 17.2118L5.43074 21.3099L3.44438 18.3887L10.0585 8.57433Z" fill="#F37021"/>
</svg>
