<svg width="42" height="42" viewBox="0 0 42 42" fill="none" xmlns="http://www.w3.org/2000/svg">
<path fill-rule="evenodd" clip-rule="evenodd" d="M9.02059 13.7083C9.02059 11.1195 11.1193 9.02083 13.7081 9.02083C16.2969 9.02083 18.3956 11.1195 18.3956 13.7083C18.3956 16.2972 16.2969 18.3958 13.7081 18.3958C11.1193 18.3958 9.02059 16.2972 9.02059 13.7083ZM13.7081 12.1458C12.8451 12.1458 12.1456 12.8454 12.1456 13.7083C12.1456 14.5713 12.8451 15.2708 13.7081 15.2708C14.571 15.2708 15.2706 14.5713 15.2706 13.7083C15.2706 12.8454 14.571 12.1458 13.7081 12.1458Z" fill="#B3B3B3"/>
<path fill-rule="evenodd" clip-rule="evenodd" d="M41.3123 6.41667C41.3123 3.25254 38.7472 0.6875 35.5831 0.6875H6.41642C3.25229 0.6875 0.687256 3.25254 0.687256 6.41667V35.5833C0.687256 38.7475 3.25229 41.3125 6.41642 41.3125H35.5831C38.7472 41.3125 41.3123 38.7475 41.3123 35.5833V6.41667ZM6.41642 3.8125C4.97818 3.8125 3.81226 4.97843 3.81226 6.41667V35.5833C3.81226 36.8215 4.67639 37.8579 5.83448 38.1222L28.2282 15.7285C28.8384 15.1183 29.8277 15.1183 30.4379 15.7285L38.1873 23.4778V6.41667C38.1873 4.97843 37.0213 3.8125 35.5831 3.8125H6.41642ZM38.1873 27.8972L29.3331 19.043L10.1886 38.1875H35.5831C37.0213 38.1875 38.1873 37.0216 38.1873 35.5833V27.8972Z" fill="#B3B3B3"/>
</svg>
